<?xml version="1.0" standalone="no"?>
<!DOCTYPE svg PUBLIC "-//W3C//DTD SVG 20010904//EN"
 "http://www.w3.org/TR/2001/REC-SVG-20010904/DTD/svg10.dtd">
<svg version="1.0" xmlns="http://www.w3.org/2000/svg"
 width="700.000000pt" height="700.000000pt" viewBox="0 0 700.000000 700.000000"
 preserveAspectRatio="xMidYMid meet">
<metadata>
Created by potrace 1.11, written by Peter Selinger 2001-2013
</metadata>
<g transform="translate(0.000000,700.000000) scale(0.100000,-0.100000)"
fill="#000000" stroke="none">
<path d="M2969 6996 c-2 -2 -38 -6 -79 -10 -378 -33 -663 -159 -902 -401 -44
-44 -188 -227 -188 -239 0 -2 -17 -33 -38 -67 -45 -74 -121 -232 -164 -339
-59 -149 -150 -413 -163 -476 -2 -11 -15 -66 -28 -124 -14 -58 -28 -123 -31
-145 -4 -23 -9 -52 -11 -65 -27 -134 -27 -458 -1 -580 3 -14 8 -38 12 -55 20
-105 140 -403 166 -413 4 -2 8 -9 8 -16 0 -19 249 -350 291 -386 3 -3 25 -32
50 -65 24 -33 46 -62 50 -65 3 -3 35 -48 71 -100 131 -190 162 -284 162 -495
0 -195 -34 -349 -117 -525 -58 -122 -112 -189 -187 -233 -110 -64 -282 -49
-337 29 -66 95 -57 214 37 529 28 91 50 167 50 168 0 2 -209 3 -464 3 l-463 0
-44 -151 c-24 -82 -45 -154 -46 -160 -1 -5 -18 -66 -38 -135 -19 -69 -37 -134
-39 -145 -2 -11 -9 -40 -16 -63 -48 -182 -62 -516 -26 -652 46 -172 144 -294
296 -367 176 -86 339 -111 675 -107 214 3 260 5 327 18 18 3 51 8 73 12 163
25 359 101 492 190 294 198 504 536 703 1134 118 355 173 646 174 915 0 150
-12 242 -49 384 -30 118 -91 264 -158 381 -56 98 -118 182 -267 365 -299 366
-357 476 -364 697 -3 94 9 168 54 318 86 290 207 422 392 429 82 3 143 -21
181 -71 59 -77 55 -197 -15 -423 -18 -55 -32 -102 -33 -105 -4 -16 -17 -58
-25 -75 -12 -28 -30 -86 -30 -96 0 -5 210 -9 468 -9 l467 0 37 123 c20 67 52
174 72 237 32 105 80 281 90 334 24 119 33 168 42 251 11 99 2 288 -17 360
-74 276 -246 404 -624 466 -62 10 -467 23 -476 15z"/>
<path d="M4369 5648 c0 -2 -2 -10 -4 -18 -2 -8 -70 -233 -150 -500 -81 -267
-183 -604 -227 -750 -44 -146 -118 -391 -164 -545 -47 -154 -87 -287 -89 -295
-6 -27 -294 -982 -325 -1080 -27 -86 -72 -239 -195 -650 -24 -80 -156 -517
-293 -973 -137 -455 -247 -829 -243 -831 3 -2 221 -4 483 -5 l476 -1 11 32 c6
18 64 213 130 433 313 1048 454 1514 460 1523 4 7 83 11 211 13 194 3 372 12
450 24 89 14 109 17 175 31 376 81 638 291 823 660 59 117 124 274 166 397 32
94 206 664 241 787 7 25 49 167 94 315 77 254 112 381 126 450 3 17 13 66 21
110 24 119 28 363 8 450 -57 249 -221 354 -639 411 -49 6 -1544 18 -1546 12z
m1001 -1013 c169 -32 164 -171 -30 -820 -181 -605 -275 -763 -472 -792 -58 -9
-315 -9 -323 -1 -6 5 9 62 59 223 13 44 49 163 79 265 31 102 98 327 150 500
53 173 105 347 117 385 11 39 33 109 47 157 l26 87 106 3 c127 4 194 1 241 -7z"/>
</g>
</svg>
