<?xml version="1.0" standalone="no"?>
<!DOCTYPE svg PUBLIC "-//W3C//DTD SVG 20010904//EN"
 "http://www.w3.org/TR/2001/REC-SVG-20010904/DTD/svg10.dtd">
<svg version="1.0" xmlns="http://www.w3.org/2000/svg"
 width="512.000000pt" height="512.000000pt" viewBox="0 0 512.000000 512.000000"
 preserveAspectRatio="xMidYMid meet">
<metadata>
Created by potrace 1.14, written by Peter Selinger 2001-2017
</metadata>
<g transform="translate(0.000000,512.000000) scale(0.100000,-0.100000)"
fill="#000000" stroke="none">
<path d="M2109 5116 c-2 -2 -26 -6 -54 -9 -346 -37 -593 -198 -778 -504 -115
-193 -256 -591 -291 -823 -27 -178 -27 -336 -1 -475 14 -72 57 -191 100 -274
48 -93 101 -169 215 -306 80 -95 195 -256 220 -305 39 -79 53 -144 54 -250 1
-129 -5 -166 -44 -282 -37 -109 -81 -194 -121 -236 -92 -94 -259 -97 -311 -6
-41 71 -30 143 68 477 5 16 -14 17 -336 15 l-342 -3 -49 -170 c-47 -163 -90
-330 -103 -405 -15 -80 -18 -269 -7 -335 40 -226 202 -351 497 -383 87 -10
366 -8 429 2 124 21 163 29 223 48 166 51 260 114 421 284 34 37 127 188 171
279 100 208 217 559 245 739 4 21 8 48 10 59 9 42 18 165 19 247 1 73 -7 150
-28 250 -19 97 -87 255 -151 355 -31 50 -186 249 -205 265 -25 21 -168 225
-186 266 -55 125 -56 264 -4 429 59 184 128 278 225 305 62 17 141 7 172 -22
69 -64 67 -131 -11 -408 -20 -68 -33 -126 -31 -129 6 -5 665 -5 670 1 11 11
138 448 154 528 6 30 13 69 16 85 12 59 14 261 4 305 -6 25 -13 56 -15 70 -16
80 -111 192 -199 234 -55 26 -163 60 -225 72 -38 6 -415 16 -421 10z"/>
<path d="M3181 4125 c-4 -5 -51 -156 -105 -335 -275 -917 -401 -1336 -432
-1436 -19 -62 -36 -120 -38 -130 -3 -11 -11 -39 -19 -64 -8 -25 -25 -79 -37
-120 -13 -41 -33 -109 -46 -150 -12 -41 -68 -228 -124 -415 -57 -187 -147
-488 -202 -670 -86 -281 -116 -384 -132 -440 -1 -5 -10 -35 -20 -65 -10 -30
-22 -68 -26 -85 -5 -16 -20 -68 -34 -115 -14 -47 -26 -88 -26 -92 0 -5 159 -8
354 -8 l354 0 17 58 c10 31 26 84 36 117 35 119 81 270 89 295 4 14 15 50 24
80 8 30 34 116 56 190 23 74 43 142 45 150 5 19 168 564 170 568 1 1 96 4 211
7 115 2 220 6 234 9 14 2 48 7 75 11 83 10 206 46 283 81 204 93 353 261 457
517 14 34 30 71 35 82 31 67 317 998 366 1190 55 219 61 421 14 531 -62 144
-197 212 -480 240 -114 11 -1090 11 -1099 -1z m746 -740 c16 -3 36 -13 45 -22
24 -21 32 -90 19 -154 -6 -30 -13 -63 -15 -74 -11 -53 -76 -294 -86 -320 -6
-16 -11 -30 -10 -30 4 0 -40 -147 -72 -240 -65 -193 -140 -302 -225 -324 -58
-16 -266 -18 -271 -3 -2 6 6 40 17 74 18 55 132 436 280 933 l48 160 34 5 c47
7 202 4 236 -5z"/>
</g>
</svg>
